<svg xmlns="http://www.w3.org/2000/svg" viewBox="0 0 40 40" width="40" height="40">
  <!-- Rosie Avatar - Celebrating -->
  <circle cx="20" cy="20" r="19" fill="#F5E6E8" stroke="#8B4D6B" stroke-width="1.5"/>
  <!-- Confetti -->
  <rect x="4" y="6" width="3" height="3" rx="0.5" fill="#2DD4BF" opacity="0.7" transform="rotate(20 5.5 7.5)"/>
  <rect x="33" y="5" width="3" height="3" rx="0.5" fill="#8B4D6B" opacity="0.6" transform="rotate(-15 34.5 6.5)"/>
  <circle cx="8" cy="18" r="1.5" fill="#F5A0C0" opacity="0.7"/>
  <circle cx="33" cy="16" r="1.5" fill="#2DD4BF" opacity="0.6"/>
  <!-- Antenna with star -->
  <line x1="20" y1="4" x2="20" y2="1" stroke="#8B4D6B" stroke-width="1.5" stroke-linecap="round"/>
  <polygon points="20,0 21,3 24,3 21.5,5 22.5,8 20,6 17.5,8 18.5,5 16,3 19,3" fill="#2DD4BF" transform="scale(0.6) translate(13.5,-1)"/>
  <!-- Star eyes -->
  <polygon points="16,16 17,19 20,19 17.5,21 18.5,24 16,22 13.5,24 14.5,21 12,19 15,19" fill="#8B4D6B"/>
  <polygon points="24,16 25,19 28,19 25.5,21 26.5,24 24,22 21.5,24 22.5,21 20,19 23,19" fill="#8B4D6B"/>
  <!-- Big smile -->
  <path d="M13 28 Q20 35 27 28" stroke="#8B4D6B" stroke-width="1.5" fill="#E8A0B0" opacity="0.4"/>
  <path d="M13 28 Q20 35 27 28" stroke="#8B4D6B" stroke-width="1.5" fill="none"/>
  <circle cx="20" cy="20" r="19" fill="none" stroke="#2DD4BF" stroke-width="1.5" opacity="0.5"/>
</svg>
