<svg xmlns="http://www.w3.org/2000/svg" viewBox="0 0 200 200" width="200" height="200">
  <!-- Rosie Portrait - Winking -->
  <circle cx="100" cy="100" r="98" fill="#FDF0F2" stroke="#E8D0D4" stroke-width="2"/>

  <line x1="100" y1="28" x2="100" y2="8" stroke="#8B4D6B" stroke-width="3" stroke-linecap="round"/>
  <circle cx="100" cy="5" r="5" fill="#2DD4BF"/>

  <circle cx="100" cy="90" r="62" fill="#F5E6E8" stroke="#8B4D6B" stroke-width="2.5"/>

  <rect x="31" y="72" width="12" height="24" rx="6" fill="#E8D0D4" stroke="#8B4D6B" stroke-width="1.5"/>
  <rect x="157" y="72" width="12" height="24" rx="6" fill="#E8D0D4" stroke="#8B4D6B" stroke-width="1.5"/>

  <!-- Eyes - Winking: left arc open, right closed -->
  <path d="M76 86 Q86 76 96 86" stroke="#8B4D6B" stroke-width="3.5" fill="none" stroke-linecap="round"/>
  <line x1="104" y1="81" x2="124" y2="81" stroke="#8B4D6B" stroke-width="3.5" stroke-linecap="round"/>

  <ellipse cx="68" cy="100" rx="10" ry="6" fill="#E8A0B0" opacity="0.5"/>
  <ellipse cx="132" cy="100" rx="10" ry="6" fill="#E8A0B0" opacity="0.5"/>

  <!-- Mouth - playful smile -->
  <path d="M86 112 Q100 122 114 112" stroke="#8B4D6B" stroke-width="2.5" fill="none" stroke-linecap="round"/>

  <path d="M68 148 Q68 160 100 165 Q132 160 132 148" fill="#F5E6E8" stroke="#8B4D6B" stroke-width="2"/>
  <rect x="88" y="148" width="24" height="14" rx="4" fill="#E8D0D4" stroke="#8B4D6B" stroke-width="1.5"/>

  <ellipse cx="52" cy="170" rx="30" ry="18" fill="#F5E6E8" stroke="#8B4D6B" stroke-width="2"/>
  <ellipse cx="148" cy="170" rx="30" ry="18" fill="#F5E6E8" stroke="#8B4D6B" stroke-width="2"/>

  <path d="M82 162 Q100 170 118 162" stroke="#2DD4BF" stroke-width="3" fill="none" stroke-linecap="round"/>
</svg>
