<svg xmlns="http://www.w3.org/2000/svg" viewBox="0 0 200 200" width="200" height="200">
  <!-- Rosie Portrait - Thinking -->
  <circle cx="100" cy="100" r="98" fill="#FDF0F2" stroke="#E8D0D4" stroke-width="2"/>

  <line x1="100" y1="28" x2="100" y2="8" stroke="#8B4D6B" stroke-width="3" stroke-linecap="round"/>
  <circle cx="100" cy="5" r="5" fill="#2DD4BF"/>
  <!-- Thought bubbles -->
  <circle cx="122" cy="22" r="4" fill="#2DD4BF" opacity="0.5"/>
  <circle cx="133" cy="13" r="5" fill="#2DD4BF" opacity="0.4"/>
  <circle cx="145" cy="5" r="7" fill="#2DD4BF" opacity="0.3"/>

  <circle cx="100" cy="90" r="62" fill="#F5E6E8" stroke="#8B4D6B" stroke-width="2.5"/>

  <rect x="31" y="72" width="12" height="24" rx="6" fill="#E8D0D4" stroke="#8B4D6B" stroke-width="1.5"/>
  <rect x="157" y="72" width="12" height="24" rx="6" fill="#E8D0D4" stroke="#8B4D6B" stroke-width="1.5"/>

  <!-- Eyes - dots shifted up-right -->
  <circle cx="86" cy="83" r="5" fill="#8B4D6B"/>
  <circle cx="88" cy="81" r="2" fill="white"/>
  <circle cx="114" cy="83" r="5" fill="#8B4D6B"/>
  <circle cx="116" cy="81" r="2" fill="white"/>

  <ellipse cx="68" cy="100" rx="9" ry="5" fill="#E8A0B0" opacity="0.3"/>
  <ellipse cx="132" cy="100" rx="9" ry="5" fill="#E8A0B0" opacity="0.3"/>

  <!-- Mouth - neutral -->
  <line x1="90" y1="114" x2="110" y2="114" stroke="#8B4D6B" stroke-width="2.5" stroke-linecap="round"/>

  <path d="M68 148 Q68 160 100 165 Q132 160 132 148" fill="#F5E6E8" stroke="#8B4D6B" stroke-width="2"/>
  <rect x="88" y="148" width="24" height="14" rx="4" fill="#E8D0D4" stroke="#8B4D6B" stroke-width="1.5"/>

  <ellipse cx="52" cy="170" rx="30" ry="18" fill="#F5E6E8" stroke="#8B4D6B" stroke-width="2"/>
  <ellipse cx="148" cy="170" rx="30" ry="18" fill="#F5E6E8" stroke="#8B4D6B" stroke-width="2"/>

  <!-- Hand at chin -->
  <circle cx="72" cy="155" r="12" fill="#F5E6E8" stroke="#8B4D6B" stroke-width="1.5"/>

  <path d="M82 162 Q100 170 118 162" stroke="#2DD4BF" stroke-width="3" fill="none" stroke-linecap="round"/>
</svg>
