<svg xmlns="http://www.w3.org/2000/svg" viewBox="0 0 40 40" width="40" height="40">
  <!-- Eddie Avatar - Celebrating -->
  <circle cx="20" cy="20" r="19" fill="#E8EEF5" stroke="#3B4B6B" stroke-width="1.5"/>
  <!-- Confetti -->
  <rect x="4" y="6" width="3" height="3" rx="0.5" fill="#3B82F6" opacity="0.7" transform="rotate(20 5.5 7.5)"/>
  <rect x="33" y="5" width="3" height="3" rx="0.5" fill="#3B4B6B" opacity="0.6" transform="rotate(-15 34.5 6.5)"/>
  <circle cx="8" cy="18" r="1.5" fill="#A0C4F5" opacity="0.7"/>
  <circle cx="33" cy="16" r="1.5" fill="#3B82F6" opacity="0.6"/>
  <!-- Antenna with star -->
  <line x1="20" y1="4" x2="20" y2="1" stroke="#3B4B6B" stroke-width="1.5" stroke-linecap="square"/>
  <polygon points="20,0 21,2.5 23.5,2.5 21.5,4 22.5,6.5 20,5 17.5,6.5 18.5,4 16.5,2.5 19,2.5" fill="#3B82F6"/>
  <!-- Face plate -->
  <rect x="9" y="12" width="22" height="16" rx="3" fill="#D8E4F0" stroke="#3B4B6B" stroke-width="1"/>
  <!-- Star eyes -->
  <polygon points="15,13 16,16 19,16 16.5,18 17.5,21 15,19 12.5,21 13.5,18 11,16 14,16" fill="#3B4B6B"/>
  <polygon points="25,13 26,16 29,16 26.5,18 27.5,21 25,19 22.5,21 23.5,18 21,16 24,16" fill="#3B4B6B"/>
  <!-- Big smile -->
  <path d="M12 29 Q20 36 28 29" stroke="#3B4B6B" stroke-width="1.5" fill="#A0C4F5" opacity="0.3"/>
  <path d="M12 29 Q20 36 28 29" stroke="#3B4B6B" stroke-width="1.5" fill="none"/>
  <circle cx="20" cy="20" r="19" fill="none" stroke="#3B82F6" stroke-width="1.5" opacity="0.5"/>
</svg>
