<svg xmlns="http://www.w3.org/2000/svg" viewBox="0 0 400 600" width="400" height="600">
  <!-- Eddie Full Body - Concerned -->
  <!-- Antenna drooping -->
  <path d="M200 60 Q208 46 206 32" stroke="#3B4B6B" stroke-width="4" fill="none" stroke-linecap="square"/>
  <rect x="198" y="20" width="16" height="16" rx="2" fill="#3B82F6" opacity="0.7"/>

  <circle cx="200" cy="100" r="60" fill="#E8EEF5" stroke="#3B4B6B" stroke-width="3"/>
  <rect x="152" y="78" width="96" height="56" rx="8" fill="#D8E4F0" stroke="#3B4B6B" stroke-width="1.5"/>

  <rect x="133" y="82" width="18" height="22" rx="3" fill="#D0DCE8" stroke="#3B4B6B" stroke-width="2"/>
  <rect x="249" y="82" width="18" height="22" rx="3" fill="#D0DCE8" stroke="#3B4B6B" stroke-width="2"/>
  <line x1="136" y1="88" x2="148" y2="88" stroke="#3B4B6B" stroke-width="1.5"/>
  <line x1="136" y1="94" x2="148" y2="94" stroke="#3B4B6B" stroke-width="1.5"/>
  <line x1="252" y1="88" x2="264" y2="88" stroke="#3B4B6B" stroke-width="1.5"/>
  <line x1="252" y1="94" x2="264" y2="94" stroke="#3B4B6B" stroke-width="1.5"/>

  <!-- Eyes - Concerned: angled brows, rectangular eyes -->
  <rect x="170" y="90" width="22" height="14" rx="4" fill="#3B4B6B"/>
  <rect x="173" y="92" rx="2" width="7" height="5" fill="white" opacity="0.5"/>
  <line x1="168" y1="83" x2="192" y2="88" stroke="#3B4B6B" stroke-width="3" stroke-linecap="round"/>

  <rect x="208" y="90" width="22" height="14" rx="4" fill="#3B4B6B"/>
  <rect x="211" y="92" rx="2" width="7" height="5" fill="white" opacity="0.5"/>
  <line x1="208" y1="88" x2="232" y2="83" stroke="#3B4B6B" stroke-width="3" stroke-linecap="round"/>

  <!-- Mouth - frown -->
  <path d="M184 126 Q200 118 216 126" stroke="#3B4B6B" stroke-width="3" fill="none" stroke-linecap="round"/>

  <rect x="188" y="155" width="24" height="22" rx="3" fill="#D0DCE8" stroke="#3B4B6B" stroke-width="2"/>

  <rect x="128" y="174" width="144" height="196" rx="16" fill="#E8EEF5" stroke="#3B4B6B" stroke-width="3"/>
  <line x1="128" y1="220" x2="272" y2="220" stroke="#3B4B6B" stroke-width="1.5" opacity="0.4"/>
  <line x1="128" y1="320" x2="272" y2="320" stroke="#3B4B6B" stroke-width="1.5" opacity="0.4"/>

  <!-- Chest panel with alert -->
  <rect x="152" y="186" width="96" height="70" rx="8" fill="#D0DCE8" stroke="#3B4B6B" stroke-width="2"/>
  <rect x="158" y="192" width="84" height="58" rx="5" fill="#3B82F6" opacity="0.15"/>
  <text x="200" y="230" text-anchor="middle" font-size="28" fill="#3B4B6B" opacity="0.7" font-family="monospace">!</text>

  <circle cx="135" cy="185" r="5" fill="#D0DCE8" stroke="#3B4B6B" stroke-width="1.5"/>
  <circle cx="265" cy="185" r="5" fill="#D0DCE8" stroke="#3B4B6B" stroke-width="2"/>

  <rect x="82" y="182" width="46" height="126" rx="14" fill="#E8EEF5" stroke="#3B4B6B" stroke-width="3" transform="rotate(8 105 182)"/>
  <rect x="72" y="304" width="58" height="22" rx="8" fill="#D0DCE8" stroke="#3B4B6B" stroke-width="2"/>

  <rect x="272" y="182" width="46" height="126" rx="14" fill="#E8EEF5" stroke="#3B4B6B" stroke-width="3" transform="rotate(-8 295 182)"/>
  <rect x="270" y="304" width="58" height="22" rx="8" fill="#D0DCE8" stroke="#3B4B6B" stroke-width="2"/>

  <rect x="128" y="362" width="144" height="20" rx="8" fill="#D0DCE8" stroke="#3B4B6B" stroke-width="2"/>
  <rect x="188" y="365" width="24" height="14" rx="3" fill="#3B82F6" opacity="0.5"/>

  <rect x="144" y="380" width="46" height="116" rx="12" fill="#E8EEF5" stroke="#3B4B6B" stroke-width="3"/>
  <rect x="134" y="490" width="66" height="22" rx="6" fill="#D0DCE8" stroke="#3B4B6B" stroke-width="2"/>
  <rect x="134" y="490" width="30" height="22" rx="6" fill="#3B82F6" opacity="0.2"/>

  <rect x="210" y="380" width="46" height="116" rx="12" fill="#E8EEF5" stroke="#3B4B6B" stroke-width="3"/>
  <rect x="200" y="490" width="66" height="22" rx="6" fill="#D0DCE8" stroke="#3B4B6B" stroke-width="2"/>
  <rect x="236" y="490" width="30" height="22" rx="6" fill="#3B82F6" opacity="0.2"/>

  <circle cx="136" cy="290" r="4" fill="#3B82F6" opacity="0.4"/>
  <circle cx="264" cy="290" r="4" fill="#3B82F6" opacity="0.4"/>
</svg>
