<svg xmlns="http://www.w3.org/2000/svg" viewBox="0 0 400 600" width="400" height="600">
  <!-- Eddie Full Body - Celebrating -->
  <!-- Confetti -->
  <rect x="55" y="38" width="8" height="8" rx="1" fill="#3B82F6" opacity="0.8" transform="rotate(20 59 42)"/>
  <rect x="315" y="50" width="8" height="8" rx="1" fill="#3B4B6B" opacity="0.7" transform="rotate(-15 319 54)"/>
  <rect x="80" y="75" width="6" height="6" rx="1" fill="#A0C4F5" opacity="0.8" transform="rotate(40 83 78)"/>
  <rect x="295" y="28" width="6" height="6" rx="1" fill="#3B82F6" opacity="0.6" transform="rotate(30 298 31)"/>
  <circle cx="335" cy="78" r="5" fill="#A0C4F5" opacity="0.7"/>
  <circle cx="65" cy="105" r="4" fill="#3B82F6" opacity="0.6"/>
  <rect x="345" y="108" width="7" height="7" rx="1" fill="#3B4B6B" opacity="0.5" transform="rotate(50 349 112)"/>

  <!-- Antenna with star -->
  <line x1="200" y1="60" x2="200" y2="28" stroke="#3B4B6B" stroke-width="4" stroke-linecap="square"/>
  <polygon points="200,14 203,22 211,22 205,27 207,35 200,30 193,35 195,27 189,22 197,22" fill="#3B82F6"/>

  <circle cx="200" cy="100" r="60" fill="#E8EEF5" stroke="#3B4B6B" stroke-width="3"/>
  <rect x="152" y="78" width="96" height="56" rx="8" fill="#D8E4F0" stroke="#3B4B6B" stroke-width="1.5"/>

  <rect x="133" y="82" width="18" height="22" rx="3" fill="#D0DCE8" stroke="#3B4B6B" stroke-width="2"/>
  <rect x="249" y="82" width="18" height="22" rx="3" fill="#D0DCE8" stroke="#3B4B6B" stroke-width="2"/>
  <line x1="136" y1="88" x2="148" y2="88" stroke="#3B4B6B" stroke-width="1.5"/>
  <line x1="136" y1="94" x2="148" y2="94" stroke="#3B4B6B" stroke-width="1.5"/>
  <line x1="252" y1="88" x2="264" y2="88" stroke="#3B4B6B" stroke-width="1.5"/>
  <line x1="252" y1="94" x2="264" y2="94" stroke="#3B4B6B" stroke-width="1.5"/>

  <!-- Eyes - Star shaped -->
  <polygon points="182,87 184,93 190,93 185,97 187,103 182,99 177,103 179,97 174,93 180,93" fill="#3B4B6B"/>
  <polygon points="218,87 220,93 226,93 221,97 223,103 218,99 213,103 215,97 210,93 216,93" fill="#3B4B6B"/>

  <!-- Mouth - big open smile -->
  <path d="M176 120 Q200 140 224 120" stroke="#3B4B6B" stroke-width="3" fill="#A0C4F5" opacity="0.4"/>
  <path d="M176 120 Q200 140 224 120" stroke="#3B4B6B" stroke-width="3" fill="none"/>

  <rect x="188" y="155" width="24" height="22" rx="3" fill="#D0DCE8" stroke="#3B4B6B" stroke-width="2"/>

  <rect x="128" y="174" width="144" height="196" rx="16" fill="#E8EEF5" stroke="#3B4B6B" stroke-width="3"/>
  <line x1="128" y1="220" x2="272" y2="220" stroke="#3B4B6B" stroke-width="1.5" opacity="0.4"/>
  <line x1="128" y1="320" x2="272" y2="320" stroke="#3B4B6B" stroke-width="1.5" opacity="0.4"/>

  <!-- Chest panel with star -->
  <rect x="152" y="186" width="96" height="70" rx="8" fill="#D0DCE8" stroke="#3B4B6B" stroke-width="2"/>
  <rect x="158" y="192" width="84" height="58" rx="5" fill="#3B82F6" opacity="0.3"/>
  <polygon points="200,198 204,210 216,210 207,217 210,229 200,222 190,229 193,217 184,210 196,210" fill="#3B4B6B" opacity="0.7"/>

  <circle cx="135" cy="185" r="5" fill="#D0DCE8" stroke="#3B4B6B" stroke-width="1.5"/>
  <circle cx="265" cy="185" r="5" fill="#D0DCE8" stroke="#3B4B6B" stroke-width="2"/>

  <!-- Arms raised celebrating -->
  <rect x="78" y="152" width="46" height="106" rx="14" fill="#E8EEF5" stroke="#3B4B6B" stroke-width="3" transform="rotate(-32 101 152)"/>
  <rect x="62" y="254" width="58" height="22" rx="8" fill="#D0DCE8" stroke="#3B4B6B" stroke-width="2"/>
  <!-- Blue glow on hand -->
  <rect x="62" y="254" width="58" height="22" rx="8" fill="#3B82F6" opacity="0.2"/>

  <rect x="276" y="152" width="46" height="106" rx="14" fill="#E8EEF5" stroke="#3B4B6B" stroke-width="3" transform="rotate(32 299 152)"/>
  <rect x="280" y="254" width="58" height="22" rx="8" fill="#D0DCE8" stroke="#3B4B6B" stroke-width="2"/>
  <rect x="280" y="254" width="58" height="22" rx="8" fill="#3B82F6" opacity="0.2"/>

  <rect x="128" y="362" width="144" height="20" rx="8" fill="#D0DCE8" stroke="#3B4B6B" stroke-width="2"/>
  <rect x="188" y="365" width="24" height="14" rx="3" fill="#3B82F6" opacity="0.7"/>

  <rect x="142" y="380" width="46" height="116" rx="12" fill="#E8EEF5" stroke="#3B4B6B" stroke-width="3" transform="rotate(-3 165 380)"/>
  <rect x="132" y="492" width="66" height="22" rx="6" fill="#D0DCE8" stroke="#3B4B6B" stroke-width="2"/>
  <rect x="132" y="492" width="30" height="22" rx="6" fill="#3B82F6" opacity="0.4"/>

  <rect x="212" y="380" width="46" height="116" rx="12" fill="#E8EEF5" stroke="#3B4B6B" stroke-width="3" transform="rotate(3 235 380)"/>
  <rect x="202" y="492" width="66" height="22" rx="6" fill="#D0DCE8" stroke="#3B4B6B" stroke-width="2"/>
  <rect x="238" y="492" width="30" height="22" rx="6" fill="#3B82F6" opacity="0.4"/>

  <circle cx="120" cy="295" r="4" fill="#3B82F6" opacity="0.5"/>
  <circle cx="280" cy="288" r="4" fill="#A0C4F5" opacity="0.5"/>
</svg>
