<svg xmlns="http://www.w3.org/2000/svg" viewBox="0 0 400 600" width="400" height="600">
  <!-- Eddie Full Body - Thinking -->
  <line x1="200" y1="60" x2="200" y2="30" stroke="#3B4B6B" stroke-width="4" stroke-linecap="square"/>
  <rect x="192" y="18" width="16" height="16" rx="2" fill="#3B82F6"/>
  <!-- Thought bubbles -->
  <circle cx="228" cy="48" r="4" fill="#3B82F6" opacity="0.5"/>
  <circle cx="242" cy="36" r="6" fill="#3B82F6" opacity="0.4"/>
  <circle cx="258" cy="22" r="9" fill="#3B82F6" opacity="0.3"/>

  <circle cx="200" cy="100" r="60" fill="#E8EEF5" stroke="#3B4B6B" stroke-width="3"/>
  <rect x="152" y="78" width="96" height="56" rx="8" fill="#D8E4F0" stroke="#3B4B6B" stroke-width="1.5"/>

  <rect x="133" y="82" width="18" height="22" rx="3" fill="#D0DCE8" stroke="#3B4B6B" stroke-width="2"/>
  <rect x="249" y="82" width="18" height="22" rx="3" fill="#D0DCE8" stroke="#3B4B6B" stroke-width="2"/>
  <line x1="136" y1="88" x2="148" y2="88" stroke="#3B4B6B" stroke-width="1.5"/>
  <line x1="136" y1="94" x2="148" y2="94" stroke="#3B4B6B" stroke-width="1.5"/>
  <line x1="252" y1="88" x2="264" y2="88" stroke="#3B4B6B" stroke-width="1.5"/>
  <line x1="252" y1="94" x2="264" y2="94" stroke="#3B4B6B" stroke-width="1.5"/>

  <!-- Eyes - dots shifted up-right -->
  <circle cx="182" cy="91" r="6" fill="#3B4B6B"/>
  <circle cx="184" cy="89" r="2" fill="white"/>
  <circle cx="218" cy="91" r="6" fill="#3B4B6B"/>
  <circle cx="220" cy="89" r="2" fill="white"/>

  <!-- Neutral mouth -->
  <line x1="186" y1="122" x2="214" y2="122" stroke="#3B4B6B" stroke-width="3" stroke-linecap="round"/>

  <rect x="188" y="155" width="24" height="22" rx="3" fill="#D0DCE8" stroke="#3B4B6B" stroke-width="2"/>

  <rect x="128" y="174" width="144" height="196" rx="16" fill="#E8EEF5" stroke="#3B4B6B" stroke-width="3"/>
  <line x1="128" y1="220" x2="272" y2="220" stroke="#3B4B6B" stroke-width="1.5" opacity="0.4"/>
  <line x1="128" y1="320" x2="272" y2="320" stroke="#3B4B6B" stroke-width="1.5" opacity="0.4"/>

  <!-- Chest panel with question mark -->
  <rect x="152" y="186" width="96" height="70" rx="8" fill="#D0DCE8" stroke="#3B4B6B" stroke-width="2"/>
  <rect x="158" y="192" width="84" height="58" rx="5" fill="#3B82F6" opacity="0.2"/>
  <text x="200" y="230" text-anchor="middle" font-size="28" fill="#3B4B6B" opacity="0.7" font-family="monospace">?</text>

  <circle cx="135" cy="185" r="5" fill="#D0DCE8" stroke="#3B4B6B" stroke-width="1.5"/>
  <circle cx="265" cy="185" r="5" fill="#D0DCE8" stroke="#3B4B6B" stroke-width="2"/>

  <!-- Arm left - raised to chin -->
  <rect x="78" y="180" width="46" height="98" rx="14" fill="#E8EEF5" stroke="#3B4B6B" stroke-width="3"/>
  <path d="M101 278 Q80 258 88 238 Q96 222 124 228" stroke="#E8EEF5" stroke-width="40" fill="none" stroke-linecap="round"/>
  <path d="M101 278 Q80 258 88 238 Q96 222 124 228" stroke="#3B4B6B" stroke-width="3" fill="none" stroke-linecap="round"/>
  <rect x="118" y="220" width="30" height="18" rx="6" fill="#D0DCE8" stroke="#3B4B6B" stroke-width="2"/>

  <rect x="272" y="178" width="46" height="126" rx="14" fill="#E8EEF5" stroke="#3B4B6B" stroke-width="3"/>
  <rect x="266" y="300" width="58" height="22" rx="8" fill="#D0DCE8" stroke="#3B4B6B" stroke-width="2"/>
  <line x1="280" y1="300" x2="280" y2="322" stroke="#3B4B6B" stroke-width="1.5"/>
  <line x1="295" y1="300" x2="295" y2="322" stroke="#3B4B6B" stroke-width="1.5"/>
  <line x1="310" y1="300" x2="310" y2="322" stroke="#3B4B6B" stroke-width="1.5"/>

  <rect x="128" y="362" width="144" height="20" rx="8" fill="#D0DCE8" stroke="#3B4B6B" stroke-width="2"/>
  <rect x="188" y="365" width="24" height="14" rx="3" fill="#3B82F6" opacity="0.6"/>

  <rect x="144" y="380" width="46" height="116" rx="12" fill="#E8EEF5" stroke="#3B4B6B" stroke-width="3"/>
  <rect x="134" y="490" width="66" height="22" rx="6" fill="#D0DCE8" stroke="#3B4B6B" stroke-width="2"/>
  <rect x="134" y="490" width="30" height="22" rx="6" fill="#3B82F6" opacity="0.3"/>

  <rect x="210" y="380" width="46" height="116" rx="12" fill="#E8EEF5" stroke="#3B4B6B" stroke-width="3"/>
  <rect x="200" y="490" width="66" height="22" rx="6" fill="#D0DCE8" stroke="#3B4B6B" stroke-width="2"/>
  <rect x="236" y="490" width="30" height="22" rx="6" fill="#3B82F6" opacity="0.3"/>

  <circle cx="136" cy="290" r="4" fill="#3B82F6" opacity="0.5"/>
  <circle cx="264" cy="290" r="4" fill="#3B82F6" opacity="0.5"/>
</svg>
