<svg xmlns="http://www.w3.org/2000/svg" viewBox="0 0 40 40" width="40" height="40">
  <!-- Illustrated Avatar 04 - Green accent, long hair -->
  <circle cx="20" cy="20" r="19" fill="#EAFAF1" stroke="#22C55E" stroke-width="2"/>
  <!-- Body -->
  <path d="M10 34 Q10 28 20 27 Q30 28 30 34" fill="#22C55E" opacity="0.75"/>
  <!-- Collar -->
  <path d="M16 27 Q20 30 24 27" stroke="white" stroke-width="1.5" fill="none"/>
  <!-- Long hair behind -->
  <path d="M11 15 Q10 22 12 30 Q14 34 16 36" stroke="#3B1F0A" stroke-width="5" fill="none" stroke-linecap="round"/>
  <path d="M29 15 Q30 22 28 30 Q26 34 24 36" stroke="#3B1F0A" stroke-width="5" fill="none" stroke-linecap="round"/>
  <!-- Face -->
  <circle cx="20" cy="17" r="10" fill="#FDDCC8" stroke="#BB7744" stroke-width="1"/>
  <!-- Hair top -->
  <path d="M11 14 Q12 7 20 7 Q28 7 29 14" fill="#3B1F0A"/>
  <!-- Eyes -->
  <circle cx="17" cy="15" r="1.5" fill="#333"/>
  <circle cx="23" cy="15" r="1.5" fill="#333"/>
  <!-- Smile -->
  <path d="M16 20 Q20 24 24 20" stroke="#333" stroke-width="1.2" fill="none" stroke-linecap="round"/>
  <!-- Small freckles -->
  <circle cx="15.5" cy="19" r="0.8" fill="#CC8844" opacity="0.5"/>
  <circle cx="24.5" cy="19" r="0.8" fill="#CC8844" opacity="0.5"/>
</svg>
