<svg xmlns="http://www.w3.org/2000/svg" viewBox="0 0 40 40" width="40" height="40">
  <!-- Illustrated Avatar 02 - Purple accent, short hair -->
  <circle cx="20" cy="20" r="19" fill="#F0EAF8" stroke="#9B59B6" stroke-width="2"/>
  <!-- Body -->
  <path d="M10 34 Q10 28 20 27 Q30 28 30 34" fill="#9B59B6" opacity="0.75"/>
  <!-- Collar -->
  <path d="M16 27 Q20 30 24 27" stroke="white" stroke-width="1.5" fill="none"/>
  <!-- Face -->
  <circle cx="20" cy="17" r="10" fill="#FDDCC8" stroke="#BB7744" stroke-width="1"/>
  <!-- Hair - short top -->
  <path d="M11 15 Q12 8 20 7 Q28 8 29 15 L28 14 Q24 10 20 10 Q16 10 12 14Z" fill="#5C3317"/>
  <!-- Eyes - simple circles -->
  <circle cx="17" cy="15" r="1.5" fill="#333"/>
  <circle cx="23" cy="15" r="1.5" fill="#333"/>
  <!-- Small smile -->
  <path d="M17 20 Q20 23 23 20" stroke="#333" stroke-width="1.2" fill="none" stroke-linecap="round"/>
  <!-- Earring accent -->
  <circle cx="10.5" cy="18" r="1.5" fill="#9B59B6"/>
  <circle cx="29.5" cy="18" r="1.5" fill="#9B59B6"/>
</svg>
