<svg xmlns="http://www.w3.org/2000/svg" viewBox="0 0 40 40" width="40" height="40">
  <!-- Illustrated Avatar 03 - Orange/amber accent, beard -->
  <circle cx="20" cy="20" r="19" fill="#FEF3E8" stroke="#F59E0B" stroke-width="2"/>
  <!-- Body -->
  <path d="M10 34 Q10 28 20 27 Q30 28 30 34" fill="#F59E0B" opacity="0.75"/>
  <!-- Collar -->
  <path d="M16 27 Q20 30 24 27" stroke="white" stroke-width="1.5" fill="none"/>
  <!-- Face -->
  <circle cx="20" cy="17" r="10" fill="#FDDCC8" stroke="#BB7744" stroke-width="1"/>
  <!-- Hair -->
  <path d="M11 14 Q12 7 20 7 Q28 7 29 14" fill="#8B4513"/>
  <!-- Beard -->
  <path d="M13 21 Q14 26 20 27 Q26 26 27 21 Q24 24 20 24 Q16 24 13 21Z" fill="#8B4513" opacity="0.7"/>
  <!-- Eyes -->
  <circle cx="17" cy="15" r="1.5" fill="#333"/>
  <circle cx="23" cy="15" r="1.5" fill="#333"/>
  <!-- Neutral mouth -->
  <line x1="17" y1="21" x2="23" y2="21" stroke="#333" stroke-width="1.2" stroke-linecap="round"/>
</svg>
